<svg width="6" height="10" viewBox="0 0 6 10" fill="none" xmlns="http://www.w3.org/2000/svg">
<path d="M0.0739382 0.960614C0.0266172 0.913679 -1.48582e-07 0.84979 -1.36929e-07 0.78314C-1.25275e-07 0.716491 0.0266173 0.652602 0.0739382 0.605667L0.603858 0.0757479C0.649218 0.0274167 0.712548 1.24586e-07 0.778831 1.36175e-07C0.845114 1.47764e-07 0.908445 0.0274167 0.953805 0.075748L5.54811 4.67005C5.61844 4.7403 5.658 4.8356 5.65809 4.93501L5.65809 5.06499C5.658 5.1644 5.61844 5.2597 5.54811 5.32995L0.953803 9.92425C0.908443 9.97258 0.845112 10 0.77883 10C0.712547 10 0.649216 9.97258 0.603856 9.92425L0.0739367 9.39433C0.0266157 9.3474 -1.62318e-06 9.28351 -1.61153e-06 9.21686C-1.59987e-06 9.15021 0.0266158 9.08632 0.0739368 9.03939L4.11332 5L0.0739382 0.960614Z" fill="black"/>
</svg>
